<?xml version="1.0" encoding="utf-8" standalone="no"?>
<!DOCTYPE svg PUBLIC "-//W3C//DTD SVG 1.1//EN"
  "http://www.w3.org/Graphics/SVG/1.1/DTD/svg11.dtd">
<!-- Created with matplotlib (http://matplotlib.org/) -->
<svg height="163pt" version="1.1" viewBox="0 0 264 163" width="264pt" xmlns="http://www.w3.org/2000/svg" xmlns:xlink="http://www.w3.org/1999/xlink">
 <defs>
  <style type="text/css">
*{stroke-linecap:butt;stroke-linejoin:round;}
  </style>
 </defs>
 <g id="figure_1">
  <g id="patch_1">
   <path d="M 0 163.170558 
L 264.009963 163.170558 
L 264.009963 0 
L 0 0 
z
" style="fill:#ffffff;"/>
  </g>
  <g id="axes_1">
   <g id="patch_2">
    <path d="M 26.400996 133.799857 
L 132.004981 133.799857 
L 132.004981 0 
L 26.400996 0 
z
" style="fill:#ffffff;"/>
   </g>
   <g id="patch_3">
    <path clip-path="url(#pd2ade56925)" d="M 31.201177 133.799857 
L 38.058579 133.799857 
L 38.058579 19.118047 
L 31.201177 19.118047 
z
" style="fill-opacity:0.7;stroke:#000000;stroke-linejoin:miter;"/>
   </g>
   <g id="patch_4">
    <path clip-path="url(#pd2ade56925)" d="M 65.488186 133.799857 
L 72.345587 133.799857 
L 72.345587 122.209967 
L 65.488186 122.209967 
z
" style="fill-opacity:0.7;stroke:#000000;stroke-linejoin:miter;"/>
   </g>
   <g id="patch_5">
    <path clip-path="url(#pd2ade56925)" d="M 99.775194 133.799857 
L 106.632595 133.799857 
L 106.632595 132.102664 
L 99.775194 132.102664 
z
" style="fill-opacity:0.7;stroke:#000000;stroke-linejoin:miter;"/>
   </g>
   <g id="patch_6">
    <path clip-path="url(#pd2ade56925)" d="M 38.058579 133.799857 
L 44.915981 133.799857 
L 44.915981 12.09233 
L 38.058579 12.09233 
z
" style="fill:#0d800d;fill-opacity:0.7;stroke:#0d800d;stroke-linejoin:miter;"/>
   </g>
   <g id="patch_7">
    <path clip-path="url(#pd2ade56925)" d="M 72.345587 133.799857 
L 79.202989 133.799857 
L 79.202989 125.070169 
L 72.345587 125.070169 
z
" style="fill:#0d800d;fill-opacity:0.7;stroke:#0d800d;stroke-linejoin:miter;"/>
   </g>
   <g id="patch_8">
    <path clip-path="url(#pd2ade56925)" d="M 106.632595 133.799857 
L 113.489997 133.799857 
L 113.489997 132.75532 
L 106.632595 132.75532 
z
" style="fill:#0d800d;fill-opacity:0.7;stroke:#0d800d;stroke-linejoin:miter;"/>
   </g>
   <g id="patch_9">
    <path clip-path="url(#pd2ade56925)" d="M 44.915981 133.799857 
L 51.773382 133.799857 
L 51.773382 16.65279 
L 44.915981 16.65279 
z
" style="fill:#0d0d80;fill-opacity:0.7;stroke:#0d0d80;stroke-linejoin:miter;"/>
   </g>
   <g id="patch_10">
    <path clip-path="url(#pd2ade56925)" d="M 79.202989 133.799857 
L 86.06039 133.799857 
L 86.06039 122.902694 
L 79.202989 122.902694 
z
" style="fill:#0d0d80;fill-opacity:0.7;stroke:#0d0d80;stroke-linejoin:miter;"/>
   </g>
   <g id="patch_11">
    <path clip-path="url(#pd2ade56925)" d="M 113.489997 133.799857 
L 120.347399 133.799857 
L 120.347399 132.642565 
L 113.489997 132.642565 
z
" style="fill:#0d0d80;fill-opacity:0.7;stroke:#0d0d80;stroke-linejoin:miter;"/>
   </g>
   <g id="patch_12">
    <path clip-path="url(#pd2ade56925)" d="M 51.773382 133.799857 
L 58.630784 133.799857 
L 58.630784 49.649004 
L 51.773382 49.649004 
z
" style="fill:#800d0d;fill-opacity:0.7;stroke:#800d0d;stroke-linejoin:miter;"/>
   </g>
   <g id="patch_13">
    <path clip-path="url(#pd2ade56925)" d="M 86.06039 133.799857 
L 92.917792 133.799857 
L 92.917792 115.453323 
L 86.06039 115.453323 
z
" style="fill:#800d0d;fill-opacity:0.7;stroke:#800d0d;stroke-linejoin:miter;"/>
   </g>
   <g id="patch_14">
    <path clip-path="url(#pd2ade56925)" d="M 120.347399 133.799857 
L 127.2048 133.799857 
L 127.2048 123.593829 
L 120.347399 123.593829 
z
" style="fill:#800d0d;fill-opacity:0.7;stroke:#800d0d;stroke-linejoin:miter;"/>
   </g>
   <g id="matplotlib.axis_1">
    <g id="xtick_1">
     <g id="line2d_1">
      <defs>
       <path d="M 0 0 
L 0 3.5 
" id="m052a8ea864" style="stroke:#000000;stroke-width:0.8;"/>
      </defs>
      <g>
       <use style="stroke:#000000;stroke-width:0.8;" x="48.344681" xlink:href="#m052a8ea864" y="133.799857"/>
      </g>
     </g>
     <g id="text_1">
      <!-- 0 -->
      <defs>
       <path d="M 31.78125 66.40625 
Q 24.171875 66.40625 20.328125 58.90625 
Q 16.5 51.421875 16.5 36.375 
Q 16.5 21.390625 20.328125 13.890625 
Q 24.171875 6.390625 31.78125 6.390625 
Q 39.453125 6.390625 43.28125 13.890625 
Q 47.125 21.390625 47.125 36.375 
Q 47.125 51.421875 43.28125 58.90625 
Q 39.453125 66.40625 31.78125 66.40625 
M 31.78125 74.21875 
Q 44.046875 74.21875 50.515625 64.515625 
Q 56.984375 54.828125 56.984375 36.375 
Q 56.984375 17.96875 50.515625 8.265625 
Q 44.046875 -1.421875 31.78125 -1.421875 
Q 19.53125 -1.421875 13.0625 8.265625 
Q 6.59375 17.96875 6.59375 36.375 
Q 6.59375 54.828125 13.0625 64.515625 
Q 19.53125 74.21875 31.78125 74.21875 
" id="DejaVuSans-30"/>
      </defs>
      <g transform="translate(45.799681 146.878607)scale(0.08 -0.08)">
       <use xlink:href="#DejaVuSans-30"/>
      </g>
     </g>
    </g>
    <g id="xtick_2">
     <g id="line2d_2">
      <g>
       <use style="stroke:#000000;stroke-width:0.8;" x="82.63169" xlink:href="#m052a8ea864" y="133.799857"/>
      </g>
     </g>
     <g id="text_2">
      <!-- 2 -->
      <defs>
       <path d="M 19.1875 8.296875 
L 53.609375 8.296875 
L 53.609375 0 
L 7.328125 0 
L 7.328125 8.296875 
Q 12.9375 14.109375 22.625 23.890625 
Q 32.328125 33.6875 34.8125 36.53125 
Q 39.546875 41.84375 41.421875 45.53125 
Q 43.3125 49.21875 43.3125 52.78125 
Q 43.3125 58.59375 39.234375 62.25 
Q 35.15625 65.921875 28.609375 65.921875 
Q 23.96875 65.921875 18.8125 64.3125 
Q 13.671875 62.703125 7.8125 59.421875 
L 7.8125 69.390625 
Q 13.765625 71.78125 18.9375 73 
Q 24.125 74.21875 28.421875 74.21875 
Q 39.75 74.21875 46.484375 68.546875 
Q 53.21875 62.890625 53.21875 53.421875 
Q 53.21875 48.921875 51.53125 44.890625 
Q 49.859375 40.875 45.40625 35.40625 
Q 44.1875 33.984375 37.640625 27.21875 
Q 31.109375 20.453125 19.1875 8.296875 
" id="DejaVuSans-32"/>
      </defs>
      <g transform="translate(80.08669 146.878607)scale(0.08 -0.08)">
       <use xlink:href="#DejaVuSans-32"/>
      </g>
     </g>
    </g>
    <g id="xtick_3">
     <g id="line2d_3">
      <g>
       <use style="stroke:#000000;stroke-width:0.8;" x="116.918698" xlink:href="#m052a8ea864" y="133.799857"/>
      </g>
     </g>
     <g id="text_3">
      <!-- 4 -->
      <defs>
       <path d="M 37.796875 64.3125 
L 12.890625 25.390625 
L 37.796875 25.390625 
z
M 35.203125 72.90625 
L 47.609375 72.90625 
L 47.609375 25.390625 
L 58.015625 25.390625 
L 58.015625 17.1875 
L 47.609375 17.1875 
L 47.609375 0 
L 37.796875 0 
L 37.796875 17.1875 
L 4.890625 17.1875 
L 4.890625 26.703125 
z
" id="DejaVuSans-34"/>
      </defs>
      <g transform="translate(114.373698 146.878607)scale(0.08 -0.08)">
       <use xlink:href="#DejaVuSans-34"/>
      </g>
     </g>
    </g>
    <g id="text_4">
     <!-- scale ratio -->
     <defs>
      <path d="M 44.28125 53.078125 
L 44.28125 44.578125 
Q 40.484375 46.53125 36.375 47.5 
Q 32.28125 48.484375 27.875 48.484375 
Q 21.1875 48.484375 17.84375 46.4375 
Q 14.5 44.390625 14.5 40.28125 
Q 14.5 37.15625 16.890625 35.375 
Q 19.28125 33.59375 26.515625 31.984375 
L 29.59375 31.296875 
Q 39.15625 29.25 43.1875 25.515625 
Q 47.21875 21.78125 47.21875 15.09375 
Q 47.21875 7.46875 41.1875 3.015625 
Q 35.15625 -1.421875 24.609375 -1.421875 
Q 20.21875 -1.421875 15.453125 -0.5625 
Q 10.6875 0.296875 5.421875 2 
L 5.421875 11.28125 
Q 10.40625 8.6875 15.234375 7.390625 
Q 20.0625 6.109375 24.8125 6.109375 
Q 31.15625 6.109375 34.5625 8.28125 
Q 37.984375 10.453125 37.984375 14.40625 
Q 37.984375 18.0625 35.515625 20.015625 
Q 33.0625 21.96875 24.703125 23.78125 
L 21.578125 24.515625 
Q 13.234375 26.265625 9.515625 29.90625 
Q 5.8125 33.546875 5.8125 39.890625 
Q 5.8125 47.609375 11.28125 51.796875 
Q 16.75 56 26.8125 56 
Q 31.78125 56 36.171875 55.265625 
Q 40.578125 54.546875 44.28125 53.078125 
" id="DejaVuSans-73"/>
      <path d="M 48.78125 52.59375 
L 48.78125 44.1875 
Q 44.96875 46.296875 41.140625 47.34375 
Q 37.3125 48.390625 33.40625 48.390625 
Q 24.65625 48.390625 19.8125 42.84375 
Q 14.984375 37.3125 14.984375 27.296875 
Q 14.984375 17.28125 19.8125 11.734375 
Q 24.65625 6.203125 33.40625 6.203125 
Q 37.3125 6.203125 41.140625 7.25 
Q 44.96875 8.296875 48.78125 10.40625 
L 48.78125 2.09375 
Q 45.015625 0.34375 40.984375 -0.53125 
Q 36.96875 -1.421875 32.421875 -1.421875 
Q 20.0625 -1.421875 12.78125 6.34375 
Q 5.515625 14.109375 5.515625 27.296875 
Q 5.515625 40.671875 12.859375 48.328125 
Q 20.21875 56 33.015625 56 
Q 37.15625 56 41.109375 55.140625 
Q 45.0625 54.296875 48.78125 52.59375 
" id="DejaVuSans-63"/>
      <path d="M 34.28125 27.484375 
Q 23.390625 27.484375 19.1875 25 
Q 14.984375 22.515625 14.984375 16.5 
Q 14.984375 11.71875 18.140625 8.90625 
Q 21.296875 6.109375 26.703125 6.109375 
Q 34.1875 6.109375 38.703125 11.40625 
Q 43.21875 16.703125 43.21875 25.484375 
L 43.21875 27.484375 
z
M 52.203125 31.203125 
L 52.203125 0 
L 43.21875 0 
L 43.21875 8.296875 
Q 40.140625 3.328125 35.546875 0.953125 
Q 30.953125 -1.421875 24.3125 -1.421875 
Q 15.921875 -1.421875 10.953125 3.296875 
Q 6 8.015625 6 15.921875 
Q 6 25.140625 12.171875 29.828125 
Q 18.359375 34.515625 30.609375 34.515625 
L 43.21875 34.515625 
L 43.21875 35.40625 
Q 43.21875 41.609375 39.140625 45 
Q 35.0625 48.390625 27.6875 48.390625 
Q 23 48.390625 18.546875 47.265625 
Q 14.109375 46.140625 10.015625 43.890625 
L 10.015625 52.203125 
Q 14.9375 54.109375 19.578125 55.046875 
Q 24.21875 56 28.609375 56 
Q 40.484375 56 46.34375 49.84375 
Q 52.203125 43.703125 52.203125 31.203125 
" id="DejaVuSans-61"/>
      <path d="M 9.421875 75.984375 
L 18.40625 75.984375 
L 18.40625 0 
L 9.421875 0 
z
" id="DejaVuSans-6c"/>
      <path d="M 56.203125 29.59375 
L 56.203125 25.203125 
L 14.890625 25.203125 
Q 15.484375 15.921875 20.484375 11.0625 
Q 25.484375 6.203125 34.421875 6.203125 
Q 39.59375 6.203125 44.453125 7.46875 
Q 49.3125 8.734375 54.109375 11.28125 
L 54.109375 2.78125 
Q 49.265625 0.734375 44.1875 -0.34375 
Q 39.109375 -1.421875 33.890625 -1.421875 
Q 20.796875 -1.421875 13.15625 6.1875 
Q 5.515625 13.8125 5.515625 26.8125 
Q 5.515625 40.234375 12.765625 48.109375 
Q 20.015625 56 32.328125 56 
Q 43.359375 56 49.78125 48.890625 
Q 56.203125 41.796875 56.203125 29.59375 
M 47.21875 32.234375 
Q 47.125 39.59375 43.09375 43.984375 
Q 39.0625 48.390625 32.421875 48.390625 
Q 24.90625 48.390625 20.390625 44.140625 
Q 15.875 39.890625 15.1875 32.171875 
z
" id="DejaVuSans-65"/>
      <path id="DejaVuSans-20"/>
      <path d="M 41.109375 46.296875 
Q 39.59375 47.171875 37.8125 47.578125 
Q 36.03125 48 33.890625 48 
Q 26.265625 48 22.1875 43.046875 
Q 18.109375 38.09375 18.109375 28.8125 
L 18.109375 0 
L 9.078125 0 
L 9.078125 54.6875 
L 18.109375 54.6875 
L 18.109375 46.1875 
Q 20.953125 51.171875 25.484375 53.578125 
Q 30.03125 56 36.53125 56 
Q 37.453125 56 38.578125 55.875 
Q 39.703125 55.765625 41.0625 55.515625 
z
" id="DejaVuSans-72"/>
      <path d="M 18.3125 70.21875 
L 18.3125 54.6875 
L 36.8125 54.6875 
L 36.8125 47.703125 
L 18.3125 47.703125 
L 18.3125 18.015625 
Q 18.3125 11.328125 20.140625 9.421875 
Q 21.96875 7.515625 27.59375 7.515625 
L 36.8125 7.515625 
L 36.8125 0 
L 27.59375 0 
Q 17.1875 0 13.234375 3.875 
Q 9.28125 7.765625 9.28125 18.015625 
L 9.28125 47.703125 
L 2.6875 47.703125 
L 2.6875 54.6875 
L 9.28125 54.6875 
L 9.28125 70.21875 
z
" id="DejaVuSans-74"/>
      <path d="M 9.421875 54.6875 
L 18.40625 54.6875 
L 18.40625 0 
L 9.421875 0 
z
M 9.421875 75.984375 
L 18.40625 75.984375 
L 18.40625 64.59375 
L 9.421875 64.59375 
z
" id="DejaVuSans-69"/>
      <path d="M 30.609375 48.390625 
Q 23.390625 48.390625 19.1875 42.75 
Q 14.984375 37.109375 14.984375 27.296875 
Q 14.984375 17.484375 19.15625 11.84375 
Q 23.34375 6.203125 30.609375 6.203125 
Q 37.796875 6.203125 41.984375 11.859375 
Q 46.1875 17.53125 46.1875 27.296875 
Q 46.1875 37.015625 41.984375 42.703125 
Q 37.796875 48.390625 30.609375 48.390625 
M 30.609375 56 
Q 42.328125 56 49.015625 48.375 
Q 55.71875 40.765625 55.71875 27.296875 
Q 55.71875 13.875 49.015625 6.21875 
Q 42.328125 -1.421875 30.609375 -1.421875 
Q 18.84375 -1.421875 12.171875 6.21875 
Q 5.515625 13.875 5.515625 27.296875 
Q 5.515625 40.765625 12.171875 48.375 
Q 18.84375 56 30.609375 56 
" id="DejaVuSans-6f"/>
     </defs>
     <g transform="translate(58.402364 158.621107)scale(0.08 -0.08)">
      <use xlink:href="#DejaVuSans-73"/>
      <use x="52.099609" xlink:href="#DejaVuSans-63"/>
      <use x="107.080078" xlink:href="#DejaVuSans-61"/>
      <use x="168.359375" xlink:href="#DejaVuSans-6c"/>
      <use x="196.142578" xlink:href="#DejaVuSans-65"/>
      <use x="257.666016" xlink:href="#DejaVuSans-20"/>
      <use x="289.453125" xlink:href="#DejaVuSans-72"/>
      <use x="330.566406" xlink:href="#DejaVuSans-61"/>
      <use x="391.845703" xlink:href="#DejaVuSans-74"/>
      <use x="431.054688" xlink:href="#DejaVuSans-69"/>
      <use x="458.837891" xlink:href="#DejaVuSans-6f"/>
     </g>
    </g>
   </g>
   <g id="matplotlib.axis_2">
    <g id="ytick_1">
     <g id="line2d_4">
      <defs>
       <path d="M 0 0 
L -3.5 0 
" id="mcf49a7866a" style="stroke:#000000;stroke-width:0.8;"/>
      </defs>
      <g>
       <use style="stroke:#000000;stroke-width:0.8;" x="26.400996" xlink:href="#mcf49a7866a" y="133.799857"/>
      </g>
     </g>
     <g id="text_5">
      <!-- 0 -->
      <g transform="translate(14.310996 136.839232)scale(0.08 -0.08)">
       <use xlink:href="#DejaVuSans-30"/>
      </g>
     </g>
    </g>
    <g id="text_6">
     <!-- probability -->
     <defs>
      <path d="M 18.109375 8.203125 
L 18.109375 -20.796875 
L 9.078125 -20.796875 
L 9.078125 54.6875 
L 18.109375 54.6875 
L 18.109375 46.390625 
Q 20.953125 51.265625 25.265625 53.625 
Q 29.59375 56 35.59375 56 
Q 45.5625 56 51.78125 48.09375 
Q 58.015625 40.1875 58.015625 27.296875 
Q 58.015625 14.40625 51.78125 6.484375 
Q 45.5625 -1.421875 35.59375 -1.421875 
Q 29.59375 -1.421875 25.265625 0.953125 
Q 20.953125 3.328125 18.109375 8.203125 
M 48.6875 27.296875 
Q 48.6875 37.203125 44.609375 42.84375 
Q 40.53125 48.484375 33.40625 48.484375 
Q 26.265625 48.484375 22.1875 42.84375 
Q 18.109375 37.203125 18.109375 27.296875 
Q 18.109375 17.390625 22.1875 11.75 
Q 26.265625 6.109375 33.40625 6.109375 
Q 40.53125 6.109375 44.609375 11.75 
Q 48.6875 17.390625 48.6875 27.296875 
" id="DejaVuSans-70"/>
      <path d="M 48.6875 27.296875 
Q 48.6875 37.203125 44.609375 42.84375 
Q 40.53125 48.484375 33.40625 48.484375 
Q 26.265625 48.484375 22.1875 42.84375 
Q 18.109375 37.203125 18.109375 27.296875 
Q 18.109375 17.390625 22.1875 11.75 
Q 26.265625 6.109375 33.40625 6.109375 
Q 40.53125 6.109375 44.609375 11.75 
Q 48.6875 17.390625 48.6875 27.296875 
M 18.109375 46.390625 
Q 20.953125 51.265625 25.265625 53.625 
Q 29.59375 56 35.59375 56 
Q 45.5625 56 51.78125 48.09375 
Q 58.015625 40.1875 58.015625 27.296875 
Q 58.015625 14.40625 51.78125 6.484375 
Q 45.5625 -1.421875 35.59375 -1.421875 
Q 29.59375 -1.421875 25.265625 0.953125 
Q 20.953125 3.328125 18.109375 8.203125 
L 18.109375 0 
L 9.078125 0 
L 9.078125 75.984375 
L 18.109375 75.984375 
z
" id="DejaVuSans-62"/>
      <path d="M 32.171875 -5.078125 
Q 28.375 -14.84375 24.75 -17.8125 
Q 21.140625 -20.796875 15.09375 -20.796875 
L 7.90625 -20.796875 
L 7.90625 -13.28125 
L 13.1875 -13.28125 
Q 16.890625 -13.28125 18.9375 -11.515625 
Q 21 -9.765625 23.484375 -3.21875 
L 25.09375 0.875 
L 2.984375 54.6875 
L 12.5 54.6875 
L 29.59375 11.921875 
L 46.6875 54.6875 
L 56.203125 54.6875 
z
" id="DejaVuSans-79"/>
     </defs>
     <g transform="translate(8.647246 88.329304)rotate(-90)scale(0.08 -0.08)">
      <use xlink:href="#DejaVuSans-70"/>
      <use x="63.476562" xlink:href="#DejaVuSans-72"/>
      <use x="104.558594" xlink:href="#DejaVuSans-6f"/>
      <use x="165.740234" xlink:href="#DejaVuSans-62"/>
      <use x="229.216797" xlink:href="#DejaVuSans-61"/>
      <use x="290.496094" xlink:href="#DejaVuSans-62"/>
      <use x="353.972656" xlink:href="#DejaVuSans-69"/>
      <use x="381.755859" xlink:href="#DejaVuSans-6c"/>
      <use x="409.539062" xlink:href="#DejaVuSans-69"/>
      <use x="437.322266" xlink:href="#DejaVuSans-74"/>
      <use x="476.53125" xlink:href="#DejaVuSans-79"/>
     </g>
    </g>
   </g>
   <g id="LineCollection_1">
    <path clip-path="url(#pd2ade56925)" d="M 34.629878 22.733961 
L 34.629878 15.502133 
" style="fill:none;stroke:#000000;stroke-width:1.5;"/>
    <path clip-path="url(#pd2ade56925)" d="M 68.916886 123.817356 
L 68.916886 120.602578 
" style="fill:none;stroke:#000000;stroke-width:1.5;"/>
    <path clip-path="url(#pd2ade56925)" d="M 103.203894 133.091106 
L 103.203894 131.114221 
" style="fill:none;stroke:#000000;stroke-width:1.5;"/>
   </g>
   <g id="LineCollection_2">
    <path clip-path="url(#pd2ade56925)" d="M 41.48728 20.36804 
L 41.48728 3.81662 
" style="fill:none;stroke:#0d800d;stroke-width:1.5;"/>
    <path clip-path="url(#pd2ade56925)" d="M 75.774288 128.592703 
L 75.774288 121.547634 
" style="fill:none;stroke:#0d800d;stroke-width:1.5;"/>
    <path clip-path="url(#pd2ade56925)" d="M 110.061296 133.812957 
L 110.061296 131.697683 
" style="fill:none;stroke:#0d800d;stroke-width:1.5;"/>
   </g>
   <g id="LineCollection_3">
    <path clip-path="url(#pd2ade56925)" d="M 48.344681 24.375875 
L 48.344681 8.929706 
" style="fill:none;stroke:#0d0d80;stroke-width:1.5;"/>
    <path clip-path="url(#pd2ade56925)" d="M 82.63169 126.276791 
L 82.63169 119.528597 
" style="fill:none;stroke:#0d0d80;stroke-width:1.5;"/>
    <path clip-path="url(#pd2ade56925)" d="M 116.918698 133.445883 
L 116.918698 131.839247 
" style="fill:none;stroke:#0d0d80;stroke-width:1.5;"/>
   </g>
   <g id="LineCollection_4">
    <path clip-path="url(#pd2ade56925)" d="M 55.202083 63.920575 
L 55.202083 35.377432 
" style="fill:none;stroke:#800d0d;stroke-width:1.5;"/>
    <path clip-path="url(#pd2ade56925)" d="M 89.489091 122.502696 
L 89.489091 108.403951 
" style="fill:none;stroke:#800d0d;stroke-width:1.5;"/>
    <path clip-path="url(#pd2ade56925)" d="M 123.776099 128.202998 
L 123.776099 118.98466 
" style="fill:none;stroke:#800d0d;stroke-width:1.5;"/>
   </g>
   <g id="patch_15">
    <path d="M 26.400996 133.799857 
L 26.400996 0 
" style="fill:none;stroke:#000000;stroke-linecap:square;stroke-linejoin:miter;stroke-width:0.8;"/>
   </g>
   <g id="patch_16">
    <path d="M 132.004981 133.799857 
L 132.004981 0 
" style="fill:none;stroke:#000000;stroke-linecap:square;stroke-linejoin:miter;stroke-width:0.8;"/>
   </g>
   <g id="patch_17">
    <path d="M 26.400996 133.799857 
L 132.004981 133.799857 
" style="fill:none;stroke:#000000;stroke-linecap:square;stroke-linejoin:miter;stroke-width:0.8;"/>
   </g>
   <g id="patch_18">
    <path d="M 26.400996 0 
L 132.004981 0 
" style="fill:none;stroke:#000000;stroke-linecap:square;stroke-linejoin:miter;stroke-width:0.8;"/>
   </g>
   <g id="legend_1">
    <g id="patch_19">
     <path d="M 54.856231 53.37 
L 126.404981 53.37 
Q 128.004981 53.37 128.004981 51.77 
L 128.004981 5.6 
Q 128.004981 4 126.404981 4 
L 54.856231 4 
Q 53.256231 4 53.256231 5.6 
L 53.256231 51.77 
Q 53.256231 53.37 54.856231 53.37 
z
" style="fill:#ffffff;opacity:0.8;stroke:#cccccc;stroke-linejoin:miter;"/>
    </g>
    <g id="patch_20">
     <path d="M 56.456231 13.27875 
L 72.456231 13.27875 
L 72.456231 7.67875 
L 56.456231 7.67875 
z
" style="fill-opacity:0.7;stroke:#000000;stroke-linejoin:miter;"/>
    </g>
    <g id="text_7">
     <!-- Shuffled -->
     <defs>
      <path d="M 53.515625 70.515625 
L 53.515625 60.890625 
Q 47.90625 63.578125 42.921875 64.890625 
Q 37.9375 66.21875 33.296875 66.21875 
Q 25.25 66.21875 20.875 63.09375 
Q 16.5 59.96875 16.5 54.203125 
Q 16.5 49.359375 19.40625 46.890625 
Q 22.3125 44.4375 30.421875 42.921875 
L 36.375 41.703125 
Q 47.40625 39.59375 52.65625 34.296875 
Q 57.90625 29 57.90625 20.125 
Q 57.90625 9.515625 50.796875 4.046875 
Q 43.703125 -1.421875 29.984375 -1.421875 
Q 24.8125 -1.421875 18.96875 -0.25 
Q 13.140625 0.921875 6.890625 3.21875 
L 6.890625 13.375 
Q 12.890625 10.015625 18.65625 8.296875 
Q 24.421875 6.59375 29.984375 6.59375 
Q 38.421875 6.59375 43.015625 9.90625 
Q 47.609375 13.234375 47.609375 19.390625 
Q 47.609375 24.75 44.3125 27.78125 
Q 41.015625 30.8125 33.5 32.328125 
L 27.484375 33.5 
Q 16.453125 35.6875 11.515625 40.375 
Q 6.59375 45.0625 6.59375 53.421875 
Q 6.59375 63.09375 13.40625 68.65625 
Q 20.21875 74.21875 32.171875 74.21875 
Q 37.3125 74.21875 42.625 73.28125 
Q 47.953125 72.359375 53.515625 70.515625 
" id="DejaVuSans-53"/>
      <path d="M 54.890625 33.015625 
L 54.890625 0 
L 45.90625 0 
L 45.90625 32.71875 
Q 45.90625 40.484375 42.875 44.328125 
Q 39.84375 48.1875 33.796875 48.1875 
Q 26.515625 48.1875 22.3125 43.546875 
Q 18.109375 38.921875 18.109375 30.90625 
L 18.109375 0 
L 9.078125 0 
L 9.078125 75.984375 
L 18.109375 75.984375 
L 18.109375 46.1875 
Q 21.34375 51.125 25.703125 53.5625 
Q 30.078125 56 35.796875 56 
Q 45.21875 56 50.046875 50.171875 
Q 54.890625 44.34375 54.890625 33.015625 
" id="DejaVuSans-68"/>
      <path d="M 8.5 21.578125 
L 8.5 54.6875 
L 17.484375 54.6875 
L 17.484375 21.921875 
Q 17.484375 14.15625 20.5 10.265625 
Q 23.53125 6.390625 29.59375 6.390625 
Q 36.859375 6.390625 41.078125 11.03125 
Q 45.3125 15.671875 45.3125 23.6875 
L 45.3125 54.6875 
L 54.296875 54.6875 
L 54.296875 0 
L 45.3125 0 
L 45.3125 8.40625 
Q 42.046875 3.421875 37.71875 1 
Q 33.40625 -1.421875 27.6875 -1.421875 
Q 18.265625 -1.421875 13.375 4.4375 
Q 8.5 10.296875 8.5 21.578125 
M 31.109375 56 
z
" id="DejaVuSans-75"/>
      <path d="M 37.109375 75.984375 
L 37.109375 68.5 
L 28.515625 68.5 
Q 23.6875 68.5 21.796875 66.546875 
Q 19.921875 64.59375 19.921875 59.515625 
L 19.921875 54.6875 
L 34.71875 54.6875 
L 34.71875 47.703125 
L 19.921875 47.703125 
L 19.921875 0 
L 10.890625 0 
L 10.890625 47.703125 
L 2.296875 47.703125 
L 2.296875 54.6875 
L 10.890625 54.6875 
L 10.890625 58.5 
Q 10.890625 67.625 15.140625 71.796875 
Q 19.390625 75.984375 28.609375 75.984375 
z
" id="DejaVuSans-66"/>
      <path d="M 45.40625 46.390625 
L 45.40625 75.984375 
L 54.390625 75.984375 
L 54.390625 0 
L 45.40625 0 
L 45.40625 8.203125 
Q 42.578125 3.328125 38.25 0.953125 
Q 33.9375 -1.421875 27.875 -1.421875 
Q 17.96875 -1.421875 11.734375 6.484375 
Q 5.515625 14.40625 5.515625 27.296875 
Q 5.515625 40.1875 11.734375 48.09375 
Q 17.96875 56 27.875 56 
Q 33.9375 56 38.25 53.625 
Q 42.578125 51.265625 45.40625 46.390625 
M 14.796875 27.296875 
Q 14.796875 17.390625 18.875 11.75 
Q 22.953125 6.109375 30.078125 6.109375 
Q 37.203125 6.109375 41.296875 11.75 
Q 45.40625 17.390625 45.40625 27.296875 
Q 45.40625 37.203125 41.296875 42.84375 
Q 37.203125 48.484375 30.078125 48.484375 
Q 22.953125 48.484375 18.875 42.84375 
Q 14.796875 37.203125 14.796875 27.296875 
" id="DejaVuSans-64"/>
     </defs>
     <g transform="translate(78.856231 13.27875)scale(0.08 -0.08)">
      <use xlink:href="#DejaVuSans-53"/>
      <use x="63.476562" xlink:href="#DejaVuSans-68"/>
      <use x="126.855469" xlink:href="#DejaVuSans-75"/>
      <use x="190.234375" xlink:href="#DejaVuSans-66"/>
      <use x="225.439453" xlink:href="#DejaVuSans-66"/>
      <use x="260.644531" xlink:href="#DejaVuSans-6c"/>
      <use x="288.427734" xlink:href="#DejaVuSans-65"/>
      <use x="349.951172" xlink:href="#DejaVuSans-64"/>
     </g>
    </g>
    <g id="patch_21">
     <path d="M 56.456231 25.02125 
L 72.456231 25.02125 
L 72.456231 19.42125 
L 56.456231 19.42125 
z
" style="fill:#0d800d;fill-opacity:0.7;stroke:#0d800d;stroke-linejoin:miter;"/>
    </g>
    <g id="text_8">
     <!-- Non-animal -->
     <defs>
      <path d="M 9.8125 72.90625 
L 23.09375 72.90625 
L 55.421875 11.921875 
L 55.421875 72.90625 
L 64.984375 72.90625 
L 64.984375 0 
L 51.703125 0 
L 19.390625 60.984375 
L 19.390625 0 
L 9.8125 0 
z
" id="DejaVuSans-4e"/>
      <path d="M 54.890625 33.015625 
L 54.890625 0 
L 45.90625 0 
L 45.90625 32.71875 
Q 45.90625 40.484375 42.875 44.328125 
Q 39.84375 48.1875 33.796875 48.1875 
Q 26.515625 48.1875 22.3125 43.546875 
Q 18.109375 38.921875 18.109375 30.90625 
L 18.109375 0 
L 9.078125 0 
L 9.078125 54.6875 
L 18.109375 54.6875 
L 18.109375 46.1875 
Q 21.34375 51.125 25.703125 53.5625 
Q 30.078125 56 35.796875 56 
Q 45.21875 56 50.046875 50.171875 
Q 54.890625 44.34375 54.890625 33.015625 
" id="DejaVuSans-6e"/>
      <path d="M 4.890625 31.390625 
L 31.203125 31.390625 
L 31.203125 23.390625 
L 4.890625 23.390625 
z
" id="DejaVuSans-2d"/>
      <path d="M 52 44.1875 
Q 55.375 50.25 60.0625 53.125 
Q 64.75 56 71.09375 56 
Q 79.640625 56 84.28125 50.015625 
Q 88.921875 44.046875 88.921875 33.015625 
L 88.921875 0 
L 79.890625 0 
L 79.890625 32.71875 
Q 79.890625 40.578125 77.09375 44.375 
Q 74.3125 48.1875 68.609375 48.1875 
Q 61.625 48.1875 57.5625 43.546875 
Q 53.515625 38.921875 53.515625 30.90625 
L 53.515625 0 
L 44.484375 0 
L 44.484375 32.71875 
Q 44.484375 40.625 41.703125 44.40625 
Q 38.921875 48.1875 33.109375 48.1875 
Q 26.21875 48.1875 22.15625 43.53125 
Q 18.109375 38.875 18.109375 30.90625 
L 18.109375 0 
L 9.078125 0 
L 9.078125 54.6875 
L 18.109375 54.6875 
L 18.109375 46.1875 
Q 21.1875 51.21875 25.484375 53.609375 
Q 29.78125 56 35.6875 56 
Q 41.65625 56 45.828125 52.96875 
Q 50 49.953125 52 44.1875 
" id="DejaVuSans-6d"/>
     </defs>
     <g transform="translate(78.856231 25.02125)scale(0.08 -0.08)">
      <use xlink:href="#DejaVuSans-4e"/>
      <use x="74.804688" xlink:href="#DejaVuSans-6f"/>
      <use x="135.986328" xlink:href="#DejaVuSans-6e"/>
      <use x="199.365234" xlink:href="#DejaVuSans-2d"/>
      <use x="235.449219" xlink:href="#DejaVuSans-61"/>
      <use x="296.728516" xlink:href="#DejaVuSans-6e"/>
      <use x="360.107422" xlink:href="#DejaVuSans-69"/>
      <use x="387.890625" xlink:href="#DejaVuSans-6d"/>
      <use x="485.302734" xlink:href="#DejaVuSans-61"/>
      <use x="546.582031" xlink:href="#DejaVuSans-6c"/>
     </g>
    </g>
    <g id="patch_22">
     <path d="M 56.456231 36.76375 
L 72.456231 36.76375 
L 72.456231 31.16375 
L 56.456231 31.16375 
z
" style="fill:#0d0d80;fill-opacity:0.7;stroke:#0d0d80;stroke-linejoin:miter;"/>
    </g>
    <g id="text_9">
     <!-- Animal -->
     <defs>
      <path d="M 34.1875 63.1875 
L 20.796875 26.90625 
L 47.609375 26.90625 
z
M 28.609375 72.90625 
L 39.796875 72.90625 
L 67.578125 0 
L 57.328125 0 
L 50.6875 18.703125 
L 17.828125 18.703125 
L 11.1875 0 
L 0.78125 0 
z
" id="DejaVuSans-41"/>
     </defs>
     <g transform="translate(78.856231 36.76375)scale(0.08 -0.08)">
      <use xlink:href="#DejaVuSans-41"/>
      <use x="68.408203" xlink:href="#DejaVuSans-6e"/>
      <use x="131.787109" xlink:href="#DejaVuSans-69"/>
      <use x="159.570312" xlink:href="#DejaVuSans-6d"/>
      <use x="256.982422" xlink:href="#DejaVuSans-61"/>
      <use x="318.261719" xlink:href="#DejaVuSans-6c"/>
     </g>
    </g>
    <g id="patch_23">
     <path d="M 56.456231 48.50625 
L 72.456231 48.50625 
L 72.456231 42.90625 
L 56.456231 42.90625 
z
" style="fill:#800d0d;fill-opacity:0.7;stroke:#800d0d;stroke-linejoin:miter;"/>
    </g>
    <g id="text_10">
     <!-- Man-made -->
     <defs>
      <path d="M 9.8125 72.90625 
L 24.515625 72.90625 
L 43.109375 23.296875 
L 61.8125 72.90625 
L 76.515625 72.90625 
L 76.515625 0 
L 66.890625 0 
L 66.890625 64.015625 
L 48.09375 14.015625 
L 38.1875 14.015625 
L 19.390625 64.015625 
L 19.390625 0 
L 9.8125 0 
z
" id="DejaVuSans-4d"/>
     </defs>
     <g transform="translate(78.856231 48.50625)scale(0.08 -0.08)">
      <use xlink:href="#DejaVuSans-4d"/>
      <use x="86.279297" xlink:href="#DejaVuSans-61"/>
      <use x="147.558594" xlink:href="#DejaVuSans-6e"/>
      <use x="210.9375" xlink:href="#DejaVuSans-2d"/>
      <use x="247.021484" xlink:href="#DejaVuSans-6d"/>
      <use x="344.433594" xlink:href="#DejaVuSans-61"/>
      <use x="405.712891" xlink:href="#DejaVuSans-64"/>
      <use x="469.189453" xlink:href="#DejaVuSans-65"/>
     </g>
    </g>
   </g>
  </g>
  <g id="axes_2">
   <g id="patch_24">
    <path d="M 137.285181 133.799857 
L 242.889166 133.799857 
L 242.889166 0 
L 137.285181 0 
z
" style="fill:#ffffff;"/>
   </g>
   <g id="patch_25">
    <path clip-path="url(#p204d0d5e27)" d="M 142.085362 133.799857 
L 145.395831 133.799857 
L 145.395831 61.178493 
L 142.085362 61.178493 
z
" style="fill-opacity:0.7;stroke:#000000;stroke-linejoin:miter;"/>
   </g>
   <g id="patch_26">
    <path clip-path="url(#p204d0d5e27)" d="M 158.63771 133.799857 
L 161.94818 133.799857 
L 161.94818 70.116952 
L 158.63771 70.116952 
z
" style="fill-opacity:0.7;stroke:#000000;stroke-linejoin:miter;"/>
   </g>
   <g id="patch_27">
    <path clip-path="url(#p204d0d5e27)" d="M 175.190059 133.799857 
L 178.500529 133.799857 
L 178.500529 75.804059 
L 175.190059 75.804059 
z
" style="fill-opacity:0.7;stroke:#000000;stroke-linejoin:miter;"/>
   </g>
   <g id="patch_28">
    <path clip-path="url(#p204d0d5e27)" d="M 191.742408 133.799857 
L 195.052878 133.799857 
L 195.052878 81.822083 
L 191.742408 81.822083 
z
" style="fill-opacity:0.7;stroke:#000000;stroke-linejoin:miter;"/>
   </g>
   <g id="patch_29">
    <path clip-path="url(#p204d0d5e27)" d="M 208.294757 133.799857 
L 211.605226 133.799857 
L 211.605226 87.19925 
L 208.294757 87.19925 
z
" style="fill-opacity:0.7;stroke:#000000;stroke-linejoin:miter;"/>
   </g>
   <g id="patch_30">
    <path clip-path="url(#p204d0d5e27)" d="M 224.847105 133.799857 
L 228.157575 133.799857 
L 228.157575 92.354874 
L 224.847105 92.354874 
z
" style="fill-opacity:0.7;stroke:#000000;stroke-linejoin:miter;"/>
   </g>
   <g id="patch_31">
    <path clip-path="url(#p204d0d5e27)" d="M 145.395831 133.799857 
L 148.706301 133.799857 
L 148.706301 53.515961 
L 145.395831 53.515961 
z
" style="fill:#0d800d;fill-opacity:0.7;stroke:#0d800d;stroke-linejoin:miter;"/>
   </g>
   <g id="patch_32">
    <path clip-path="url(#p204d0d5e27)" d="M 161.94818 133.799857 
L 165.25865 133.799857 
L 165.25865 68.112232 
L 161.94818 68.112232 
z
" style="fill:#0d800d;fill-opacity:0.7;stroke:#0d800d;stroke-linejoin:miter;"/>
   </g>
   <g id="patch_33">
    <path clip-path="url(#p204d0d5e27)" d="M 178.500529 133.799857 
L 181.810999 133.799857 
L 181.810999 76.281294 
L 178.500529 76.281294 
z
" style="fill:#0d800d;fill-opacity:0.7;stroke:#0d800d;stroke-linejoin:miter;"/>
   </g>
   <g id="patch_34">
    <path clip-path="url(#p204d0d5e27)" d="M 195.052878 133.799857 
L 198.363347 133.799857 
L 198.363347 84.000648 
L 195.052878 84.000648 
z
" style="fill:#0d800d;fill-opacity:0.7;stroke:#0d800d;stroke-linejoin:miter;"/>
   </g>
   <g id="patch_35">
    <path clip-path="url(#p204d0d5e27)" d="M 211.605226 133.799857 
L 214.915696 133.799857 
L 214.915696 90.406898 
L 211.605226 90.406898 
z
" style="fill:#0d800d;fill-opacity:0.7;stroke:#0d800d;stroke-linejoin:miter;"/>
   </g>
   <g id="patch_36">
    <path clip-path="url(#p204d0d5e27)" d="M 228.157575 133.799857 
L 231.468045 133.799857 
L 231.468045 96.158679 
L 228.157575 96.158679 
z
" style="fill:#0d800d;fill-opacity:0.7;stroke:#0d800d;stroke-linejoin:miter;"/>
   </g>
   <g id="patch_37">
    <path clip-path="url(#p204d0d5e27)" d="M 148.706301 133.799857 
L 152.016771 133.799857 
L 152.016771 49.541244 
L 148.706301 49.541244 
z
" style="fill:#0d0d80;fill-opacity:0.7;stroke:#0d0d80;stroke-linejoin:miter;"/>
   </g>
   <g id="patch_38">
    <path clip-path="url(#p204d0d5e27)" d="M 165.25865 133.799857 
L 168.56912 133.799857 
L 168.56912 66.34901 
L 165.25865 66.34901 
z
" style="fill:#0d0d80;fill-opacity:0.7;stroke:#0d0d80;stroke-linejoin:miter;"/>
   </g>
   <g id="patch_39">
    <path clip-path="url(#p204d0d5e27)" d="M 181.810999 133.799857 
L 185.121468 133.799857 
L 185.121468 76.312437 
L 181.810999 76.312437 
z
" style="fill:#0d0d80;fill-opacity:0.7;stroke:#0d0d80;stroke-linejoin:miter;"/>
   </g>
   <g id="patch_40">
    <path clip-path="url(#p204d0d5e27)" d="M 198.363347 133.799857 
L 201.673817 133.799857 
L 201.673817 85.162003 
L 198.363347 85.162003 
z
" style="fill:#0d0d80;fill-opacity:0.7;stroke:#0d0d80;stroke-linejoin:miter;"/>
   </g>
   <g id="patch_41">
    <path clip-path="url(#p204d0d5e27)" d="M 214.915696 133.799857 
L 218.226166 133.799857 
L 218.226166 92.438495 
L 214.915696 92.438495 
z
" style="fill:#0d0d80;fill-opacity:0.7;stroke:#0d0d80;stroke-linejoin:miter;"/>
   </g>
   <g id="patch_42">
    <path clip-path="url(#p204d0d5e27)" d="M 231.468045 133.799857 
L 234.778515 133.799857 
L 234.778515 98.672521 
L 231.468045 98.672521 
z
" style="fill:#0d0d80;fill-opacity:0.7;stroke:#0d0d80;stroke-linejoin:miter;"/>
   </g>
   <g id="patch_43">
    <path clip-path="url(#p204d0d5e27)" d="M 152.016771 133.799857 
L 155.327241 133.799857 
L 155.327241 22.299976 
L 152.016771 22.299976 
z
" style="fill:#800d0d;fill-opacity:0.7;stroke:#800d0d;stroke-linejoin:miter;"/>
   </g>
   <g id="patch_44">
    <path clip-path="url(#p204d0d5e27)" d="M 168.56912 133.799857 
L 171.879589 133.799857 
L 171.879589 61.376645 
L 168.56912 61.376645 
z
" style="fill:#800d0d;fill-opacity:0.7;stroke:#800d0d;stroke-linejoin:miter;"/>
   </g>
   <g id="patch_45">
    <path clip-path="url(#p204d0d5e27)" d="M 185.121468 133.799857 
L 188.431938 133.799857 
L 188.431938 81.511076 
L 185.121468 81.511076 
z
" style="fill:#800d0d;fill-opacity:0.7;stroke:#800d0d;stroke-linejoin:miter;"/>
   </g>
   <g id="patch_46">
    <path clip-path="url(#p204d0d5e27)" d="M 201.673817 133.799857 
L 204.984287 133.799857 
L 204.984287 93.968981 
L 201.673817 93.968981 
z
" style="fill:#800d0d;fill-opacity:0.7;stroke:#800d0d;stroke-linejoin:miter;"/>
   </g>
   <g id="patch_47">
    <path clip-path="url(#p204d0d5e27)" d="M 218.226166 133.799857 
L 221.536636 133.799857 
L 221.536636 101.827795 
L 218.226166 101.827795 
z
" style="fill:#800d0d;fill-opacity:0.7;stroke:#800d0d;stroke-linejoin:miter;"/>
   </g>
   <g id="patch_48">
    <path clip-path="url(#p204d0d5e27)" d="M 234.778515 133.799857 
L 238.088984 133.799857 
L 238.088984 107.491239 
L 234.778515 107.491239 
z
" style="fill:#800d0d;fill-opacity:0.7;stroke:#800d0d;stroke-linejoin:miter;"/>
   </g>
   <g id="matplotlib.axis_3">
    <g id="xtick_4">
     <g id="line2d_5">
      <g>
       <use style="stroke:#000000;stroke-width:0.8;" x="150.361536" xlink:href="#m052a8ea864" y="133.799857"/>
      </g>
     </g>
     <g id="text_11">
      <!-- $0.6^{\circ}$ -->
      <defs>
       <path d="M 10.6875 12.40625 
L 21 12.40625 
L 21 0 
L 10.6875 0 
z
" id="DejaVuSans-2e"/>
       <path d="M 33.015625 40.375 
Q 26.375 40.375 22.484375 35.828125 
Q 18.609375 31.296875 18.609375 23.390625 
Q 18.609375 15.53125 22.484375 10.953125 
Q 26.375 6.390625 33.015625 6.390625 
Q 39.65625 6.390625 43.53125 10.953125 
Q 47.40625 15.53125 47.40625 23.390625 
Q 47.40625 31.296875 43.53125 35.828125 
Q 39.65625 40.375 33.015625 40.375 
M 52.59375 71.296875 
L 52.59375 62.3125 
Q 48.875 64.0625 45.09375 64.984375 
Q 41.3125 65.921875 37.59375 65.921875 
Q 27.828125 65.921875 22.671875 59.328125 
Q 17.53125 52.734375 16.796875 39.40625 
Q 19.671875 43.65625 24.015625 45.921875 
Q 28.375 48.1875 33.59375 48.1875 
Q 44.578125 48.1875 50.953125 41.515625 
Q 57.328125 34.859375 57.328125 23.390625 
Q 57.328125 12.15625 50.6875 5.359375 
Q 44.046875 -1.421875 33.015625 -1.421875 
Q 20.359375 -1.421875 13.671875 8.265625 
Q 6.984375 17.96875 6.984375 36.375 
Q 6.984375 53.65625 15.1875 63.9375 
Q 23.390625 74.21875 37.203125 74.21875 
Q 40.921875 74.21875 44.703125 73.484375 
Q 48.484375 72.75 52.59375 71.296875 
" id="DejaVuSans-36"/>
       <path d="M 31.25 40.921875 
Q 27.34375 40.921875 24.65625 38.203125 
Q 21.96875 35.5 21.96875 31.59375 
Q 21.96875 27.734375 24.65625 25.078125 
Q 27.34375 22.421875 31.25 22.421875 
Q 35.15625 22.421875 37.84375 25.078125 
Q 40.53125 27.734375 40.53125 31.59375 
Q 40.53125 35.453125 37.8125 38.1875 
Q 35.109375 40.921875 31.25 40.921875 
M 31.25 47.21875 
Q 34.375 47.21875 37.25 46.015625 
Q 40.140625 44.828125 42.234375 42.578125 
Q 44.484375 40.390625 45.609375 37.59375 
Q 46.734375 34.8125 46.734375 31.59375 
Q 46.734375 25.15625 42.21875 20.6875 
Q 37.703125 16.21875 31.15625 16.21875 
Q 24.5625 16.21875 20.15625 20.609375 
Q 15.765625 25 15.765625 31.59375 
Q 15.765625 38.140625 20.25 42.671875 
Q 24.75 47.21875 31.25 47.21875 
" id="DejaVuSans-2218"/>
      </defs>
      <g transform="translate(142.081536 146.878607)scale(0.08 -0.08)">
       <use transform="translate(0 0.78125)" xlink:href="#DejaVuSans-30"/>
       <use transform="translate(63.623047 0.78125)" xlink:href="#DejaVuSans-2e"/>
       <use transform="translate(95.410156 0.78125)" xlink:href="#DejaVuSans-36"/>
       <use transform="translate(159.990234 39.0625)scale(0.7)" xlink:href="#DejaVuSans-2218"/>
      </g>
     </g>
    </g>
    <g id="xtick_5">
     <g id="line2d_6">
      <g>
       <use style="stroke:#000000;stroke-width:0.8;" x="166.913885" xlink:href="#m052a8ea864" y="133.799857"/>
      </g>
     </g>
     <g id="text_12">
      <!-- $0.9^{\circ}$ -->
      <defs>
       <path d="M 10.984375 1.515625 
L 10.984375 10.5 
Q 14.703125 8.734375 18.5 7.8125 
Q 22.3125 6.890625 25.984375 6.890625 
Q 35.75 6.890625 40.890625 13.453125 
Q 46.046875 20.015625 46.78125 33.40625 
Q 43.953125 29.203125 39.59375 26.953125 
Q 35.25 24.703125 29.984375 24.703125 
Q 19.046875 24.703125 12.671875 31.3125 
Q 6.296875 37.9375 6.296875 49.421875 
Q 6.296875 60.640625 12.9375 67.421875 
Q 19.578125 74.21875 30.609375 74.21875 
Q 43.265625 74.21875 49.921875 64.515625 
Q 56.59375 54.828125 56.59375 36.375 
Q 56.59375 19.140625 48.40625 8.859375 
Q 40.234375 -1.421875 26.421875 -1.421875 
Q 22.703125 -1.421875 18.890625 -0.6875 
Q 15.09375 0.046875 10.984375 1.515625 
M 30.609375 32.421875 
Q 37.25 32.421875 41.125 36.953125 
Q 45.015625 41.5 45.015625 49.421875 
Q 45.015625 57.28125 41.125 61.84375 
Q 37.25 66.40625 30.609375 66.40625 
Q 23.96875 66.40625 20.09375 61.84375 
Q 16.21875 57.28125 16.21875 49.421875 
Q 16.21875 41.5 20.09375 36.953125 
Q 23.96875 32.421875 30.609375 32.421875 
" id="DejaVuSans-39"/>
      </defs>
      <g transform="translate(158.633885 146.878607)scale(0.08 -0.08)">
       <use transform="translate(0 0.78125)" xlink:href="#DejaVuSans-30"/>
       <use transform="translate(63.623047 0.78125)" xlink:href="#DejaVuSans-2e"/>
       <use transform="translate(95.410156 0.78125)" xlink:href="#DejaVuSans-39"/>
       <use transform="translate(159.990234 39.0625)scale(0.7)" xlink:href="#DejaVuSans-2218"/>
      </g>
     </g>
    </g>
    <g id="xtick_6">
     <g id="line2d_7">
      <g>
       <use style="stroke:#000000;stroke-width:0.8;" x="183.466234" xlink:href="#m052a8ea864" y="133.799857"/>
      </g>
     </g>
     <g id="text_13">
      <!-- $1.1^{\circ}$ -->
      <defs>
       <path d="M 12.40625 8.296875 
L 28.515625 8.296875 
L 28.515625 63.921875 
L 10.984375 60.40625 
L 10.984375 69.390625 
L 28.421875 72.90625 
L 38.28125 72.90625 
L 38.28125 8.296875 
L 54.390625 8.296875 
L 54.390625 0 
L 12.40625 0 
z
" id="DejaVuSans-31"/>
      </defs>
      <g transform="translate(175.186234 146.878607)scale(0.08 -0.08)">
       <use transform="translate(0 0.09375)" xlink:href="#DejaVuSans-31"/>
       <use transform="translate(63.623047 0.09375)" xlink:href="#DejaVuSans-2e"/>
       <use transform="translate(95.410156 0.09375)" xlink:href="#DejaVuSans-31"/>
       <use transform="translate(159.990234 38.375)scale(0.7)" xlink:href="#DejaVuSans-2218"/>
      </g>
     </g>
    </g>
    <g id="xtick_7">
     <g id="line2d_8">
      <g>
       <use style="stroke:#000000;stroke-width:0.8;" x="200.018582" xlink:href="#m052a8ea864" y="133.799857"/>
      </g>
     </g>
     <g id="text_14">
      <!-- $1.4^{\circ}$ -->
      <g transform="translate(191.738582 146.878607)scale(0.08 -0.08)">
       <use transform="translate(0 0.09375)" xlink:href="#DejaVuSans-31"/>
       <use transform="translate(63.623047 0.09375)" xlink:href="#DejaVuSans-2e"/>
       <use transform="translate(95.410156 0.09375)" xlink:href="#DejaVuSans-34"/>
       <use transform="translate(159.990234 38.375)scale(0.7)" xlink:href="#DejaVuSans-2218"/>
      </g>
     </g>
    </g>
    <g id="xtick_8">
     <g id="line2d_9">
      <g>
       <use style="stroke:#000000;stroke-width:0.8;" x="216.570931" xlink:href="#m052a8ea864" y="133.799857"/>
      </g>
     </g>
     <g id="text_15">
      <!-- $1.6^{\circ}$ -->
      <g transform="translate(208.290931 146.878607)scale(0.08 -0.08)">
       <use transform="translate(0 0.78125)" xlink:href="#DejaVuSans-31"/>
       <use transform="translate(63.623047 0.78125)" xlink:href="#DejaVuSans-2e"/>
       <use transform="translate(95.410156 0.78125)" xlink:href="#DejaVuSans-36"/>
       <use transform="translate(159.990234 39.0625)scale(0.7)" xlink:href="#DejaVuSans-2218"/>
      </g>
     </g>
    </g>
    <g id="xtick_9">
     <g id="line2d_10">
      <g>
       <use style="stroke:#000000;stroke-width:0.8;" x="233.12328" xlink:href="#m052a8ea864" y="133.799857"/>
      </g>
     </g>
     <g id="text_16">
      <!-- $1.9^{\circ}$ -->
      <g transform="translate(224.84328 146.878607)scale(0.08 -0.08)">
       <use transform="translate(0 0.78125)" xlink:href="#DejaVuSans-31"/>
       <use transform="translate(63.623047 0.78125)" xlink:href="#DejaVuSans-2e"/>
       <use transform="translate(95.410156 0.78125)" xlink:href="#DejaVuSans-39"/>
       <use transform="translate(159.990234 39.0625)scale(0.7)" xlink:href="#DejaVuSans-2218"/>
      </g>
     </g>
    </g>
    <g id="text_17">
     <!-- distance (deg) -->
     <defs>
      <path d="M 31 75.875 
Q 24.46875 64.65625 21.28125 53.65625 
Q 18.109375 42.671875 18.109375 31.390625 
Q 18.109375 20.125 21.3125 9.0625 
Q 24.515625 -2 31 -13.1875 
L 23.1875 -13.1875 
Q 15.875 -1.703125 12.234375 9.375 
Q 8.59375 20.453125 8.59375 31.390625 
Q 8.59375 42.28125 12.203125 53.3125 
Q 15.828125 64.359375 23.1875 75.875 
z
" id="DejaVuSans-28"/>
      <path d="M 45.40625 27.984375 
Q 45.40625 37.75 41.375 43.109375 
Q 37.359375 48.484375 30.078125 48.484375 
Q 22.859375 48.484375 18.828125 43.109375 
Q 14.796875 37.75 14.796875 27.984375 
Q 14.796875 18.265625 18.828125 12.890625 
Q 22.859375 7.515625 30.078125 7.515625 
Q 37.359375 7.515625 41.375 12.890625 
Q 45.40625 18.265625 45.40625 27.984375 
M 54.390625 6.78125 
Q 54.390625 -7.171875 48.1875 -13.984375 
Q 42 -20.796875 29.203125 -20.796875 
Q 24.46875 -20.796875 20.265625 -20.09375 
Q 16.0625 -19.390625 12.109375 -17.921875 
L 12.109375 -9.1875 
Q 16.0625 -11.328125 19.921875 -12.34375 
Q 23.78125 -13.375 27.78125 -13.375 
Q 36.625 -13.375 41.015625 -8.765625 
Q 45.40625 -4.15625 45.40625 5.171875 
L 45.40625 9.625 
Q 42.625 4.78125 38.28125 2.390625 
Q 33.9375 0 27.875 0 
Q 17.828125 0 11.671875 7.65625 
Q 5.515625 15.328125 5.515625 27.984375 
Q 5.515625 40.671875 11.671875 48.328125 
Q 17.828125 56 27.875 56 
Q 33.9375 56 38.28125 53.609375 
Q 42.625 51.21875 45.40625 46.390625 
L 45.40625 54.6875 
L 54.390625 54.6875 
z
" id="DejaVuSans-67"/>
      <path d="M 8.015625 75.875 
L 15.828125 75.875 
Q 23.140625 64.359375 26.78125 53.3125 
Q 30.421875 42.28125 30.421875 31.390625 
Q 30.421875 20.453125 26.78125 9.375 
Q 23.140625 -1.703125 15.828125 -13.1875 
L 8.015625 -13.1875 
Q 14.5 -2 17.703125 9.0625 
Q 20.90625 20.125 20.90625 31.390625 
Q 20.90625 42.671875 17.703125 53.65625 
Q 14.5 64.65625 8.015625 75.875 
" id="DejaVuSans-29"/>
     </defs>
     <g transform="translate(161.205298 158.621107)scale(0.08 -0.08)">
      <use xlink:href="#DejaVuSans-64"/>
      <use x="63.476562" xlink:href="#DejaVuSans-69"/>
      <use x="91.259766" xlink:href="#DejaVuSans-73"/>
      <use x="143.359375" xlink:href="#DejaVuSans-74"/>
      <use x="182.568359" xlink:href="#DejaVuSans-61"/>
      <use x="243.847656" xlink:href="#DejaVuSans-6e"/>
      <use x="307.226562" xlink:href="#DejaVuSans-63"/>
      <use x="362.207031" xlink:href="#DejaVuSans-65"/>
      <use x="423.730469" xlink:href="#DejaVuSans-20"/>
      <use x="455.517578" xlink:href="#DejaVuSans-28"/>
      <use x="494.53125" xlink:href="#DejaVuSans-64"/>
      <use x="558.007812" xlink:href="#DejaVuSans-65"/>
      <use x="619.53125" xlink:href="#DejaVuSans-67"/>
      <use x="683.007812" xlink:href="#DejaVuSans-29"/>
     </g>
    </g>
   </g>
   <g id="matplotlib.axis_4"/>
   <g id="LineCollection_5">
    <path clip-path="url(#p204d0d5e27)" d="M 143.740597 64.105252 
L 143.740597 58.251734 
" style="fill:none;stroke:#000000;stroke-width:1.5;"/>
    <path clip-path="url(#p204d0d5e27)" d="M 160.292945 71.094122 
L 160.292945 69.139781 
" style="fill:none;stroke:#000000;stroke-width:1.5;"/>
    <path clip-path="url(#p204d0d5e27)" d="M 176.845294 76.542166 
L 176.845294 75.065953 
" style="fill:none;stroke:#000000;stroke-width:1.5;"/>
    <path clip-path="url(#p204d0d5e27)" d="M 193.397643 82.769019 
L 193.397643 80.875147 
" style="fill:none;stroke:#000000;stroke-width:1.5;"/>
    <path clip-path="url(#p204d0d5e27)" d="M 209.949992 88.300789 
L 209.949992 86.097712 
" style="fill:none;stroke:#000000;stroke-width:1.5;"/>
    <path clip-path="url(#p204d0d5e27)" d="M 226.50234 93.506701 
L 226.50234 91.203048 
" style="fill:none;stroke:#000000;stroke-width:1.5;"/>
   </g>
   <g id="LineCollection_6">
    <path clip-path="url(#p204d0d5e27)" d="M 147.051066 64.00149 
L 147.051066 43.030432 
" style="fill:none;stroke:#0d800d;stroke-width:1.5;"/>
    <path clip-path="url(#p204d0d5e27)" d="M 163.603415 71.188708 
L 163.603415 65.035755 
" style="fill:none;stroke:#0d800d;stroke-width:1.5;"/>
    <path clip-path="url(#p204d0d5e27)" d="M 180.155764 77.897542 
L 180.155764 74.665046 
" style="fill:none;stroke:#0d800d;stroke-width:1.5;"/>
    <path clip-path="url(#p204d0d5e27)" d="M 196.708113 87.250364 
L 196.708113 80.750932 
" style="fill:none;stroke:#0d800d;stroke-width:1.5;"/>
    <path clip-path="url(#p204d0d5e27)" d="M 213.260461 94.665995 
L 213.260461 86.147801 
" style="fill:none;stroke:#0d800d;stroke-width:1.5;"/>
    <path clip-path="url(#p204d0d5e27)" d="M 229.81281 100.839209 
L 229.81281 91.478149 
" style="fill:none;stroke:#0d800d;stroke-width:1.5;"/>
   </g>
   <g id="LineCollection_7">
    <path clip-path="url(#p204d0d5e27)" d="M 150.361536 58.764628 
L 150.361536 40.317861 
" style="fill:none;stroke:#0d0d80;stroke-width:1.5;"/>
    <path clip-path="url(#p204d0d5e27)" d="M 166.913885 69.084907 
L 166.913885 63.613114 
" style="fill:none;stroke:#0d0d80;stroke-width:1.5;"/>
    <path clip-path="url(#p204d0d5e27)" d="M 183.466234 77.761562 
L 183.466234 74.863312 
" style="fill:none;stroke:#0d0d80;stroke-width:1.5;"/>
    <path clip-path="url(#p204d0d5e27)" d="M 200.018582 88.004645 
L 200.018582 82.319362 
" style="fill:none;stroke:#0d0d80;stroke-width:1.5;"/>
    <path clip-path="url(#p204d0d5e27)" d="M 216.570931 96.214434 
L 216.570931 88.662557 
" style="fill:none;stroke:#0d0d80;stroke-width:1.5;"/>
    <path clip-path="url(#p204d0d5e27)" d="M 233.12328 102.860298 
L 233.12328 94.484745 
" style="fill:none;stroke:#0d0d80;stroke-width:1.5;"/>
   </g>
   <g id="LineCollection_8">
    <path clip-path="url(#p204d0d5e27)" d="M 153.672006 37.930104 
L 153.672006 6.669848 
" style="fill:none;stroke:#800d0d;stroke-width:1.5;"/>
    <path clip-path="url(#p204d0d5e27)" d="M 170.224355 64.630079 
L 170.224355 58.123211 
" style="fill:none;stroke:#800d0d;stroke-width:1.5;"/>
    <path clip-path="url(#p204d0d5e27)" d="M 186.776703 84.623122 
L 186.776703 78.39903 
" style="fill:none;stroke:#800d0d;stroke-width:1.5;"/>
    <path clip-path="url(#p204d0d5e27)" d="M 203.329052 98.049876 
L 203.329052 89.888086 
" style="fill:none;stroke:#800d0d;stroke-width:1.5;"/>
    <path clip-path="url(#p204d0d5e27)" d="M 219.881401 106.751368 
L 219.881401 96.904223 
" style="fill:none;stroke:#800d0d;stroke-width:1.5;"/>
    <path clip-path="url(#p204d0d5e27)" d="M 236.43375 112.746286 
L 236.43375 102.236191 
" style="fill:none;stroke:#800d0d;stroke-width:1.5;"/>
   </g>
   <g id="patch_49">
    <path d="M 137.285181 133.799857 
L 137.285181 0 
" style="fill:none;stroke:#000000;stroke-linecap:square;stroke-linejoin:miter;stroke-width:0.8;"/>
   </g>
   <g id="patch_50">
    <path d="M 242.889166 133.799857 
L 242.889166 0 
" style="fill:none;stroke:#000000;stroke-linecap:square;stroke-linejoin:miter;stroke-width:0.8;"/>
   </g>
   <g id="patch_51">
    <path d="M 137.285181 133.799857 
L 242.889166 133.799857 
" style="fill:none;stroke:#000000;stroke-linecap:square;stroke-linejoin:miter;stroke-width:0.8;"/>
   </g>
   <g id="patch_52">
    <path d="M 137.285181 0 
L 242.889166 0 
" style="fill:none;stroke:#000000;stroke-linecap:square;stroke-linejoin:miter;stroke-width:0.8;"/>
   </g>
  </g>
 </g>
 <defs>
  <clipPath id="pd2ade56925">
   <rect height="133.799857" width="105.603985" x="26.400996" y="0"/>
  </clipPath>
  <clipPath id="p204d0d5e27">
   <rect height="133.799857" width="105.603985" x="137.285181" y="0"/>
  </clipPath>
 </defs>
</svg>
